<?xml version="1.0" encoding="utf-8"?>
<!-- Generator: Adobe Illustrator 22.0.0, SVG Export Plug-In . SVG Version: 6.00 Build 0)  -->
<svg version="1.1" id="图层_1" xmlns="http://www.w3.org/2000/svg" xmlns:xlink="http://www.w3.org/1999/xlink" x="0px" y="0px"
	 viewBox="0 0 1008 1008" style="enable-background:new 0 0 1008 1008;" xml:space="preserve">
<style type="text/css">
	.st0{fill:#D04544;stroke:#000000;stroke-miterlimit:10;}
	.st1{fill:#E8F1F3;}
	.st2{fill:#F4F8F9;}
</style>
<ellipse class="st0" cx="522" cy="482.8" rx="176.9" ry="173.2"/>
<path class="st1" d="M494.2,371.4c17.4,39-5.4,55.5,17.4,39c22.9-16.5,1.1-39,1.1-39H494.2z"/>
<path class="st1" d="M445.8,394.1c2.1,0.1,5.6,0.5,9.2,2.6c0.3,0.2,2.7,1.5,4.8,3.9c7.1,7.8,8.9,20.6,8.9,20.6
	c6.8,11.3,13.5,22.7,20.3,34c15.5,15.5,31.1,31,46.6,46.4c10.2,9.4,20.4,18.8,30.6,28.3c12.4,12.3,24.7,24.6,37.1,36.9l44.3,10.7
	l-18.5,9.7l-18.5,5.8l-28.8-20.9c-8-8.8-16.1-17.6-24.1-26.5c-10.7-10-21.3-20-32-30c-9.9-10-19.8-19.9-29.7-29.9
	c-8.1-8.9-16.2-17.9-24.3-26.8c-5.8-11.6-11.6-23.1-17.3-34.7C451.5,414.3,448.7,404.2,445.8,394.1z"/>
<path class="st2" d="M561,377c-3.7,4.5-4,9.4-4,11c-7.5,16.8-15.1,33.6-22.6,50.3l-24.4,33.2c-8.6,7.8-17.3,15.7-25.9,23.5
	c-9.7,8.6-19.8,18.2-30,29c-6.1,6.4-11.7,12.8-17,19c-11,10.2-22.1,20.4-33.1,30.6l-11.6,9.9l36.8-9.9c13-11.2,26-22.4,38.9-33.6
	c8.4-9.7,16.7-19.4,25.1-29.1c4.2-8.1,8.9-13.2,12.4-16.4c1.9-1.6,14.1-12.3,17.5-16.9c0.6-0.9,1.2-1.7,1.7-2.5
	c1.8-2.7,2.9-4.9,3.1-5.3c2.1-4,8.3-11.6,13.9-19.5c7.2-10.3,9.1-15.1,17.9-25.6l0,0l14.7-37.2c0-5.7,0-11.5,0-17.2
	C573.2,370.5,566,370.9,561,377z"/>
<path class="st2" d="M1119.1,492.1"/>
<path class="st2" d="M848,453"/>
<polyline class="st1" points="556.2,401.2 553.5,404.7 495.8,480.7 487.9,492.4 532.7,455.7 "/>
</svg>
