<?xml version="1.0" standalone="no"?><!DOCTYPE svg PUBLIC "-//W3C//DTD SVG 1.1//EN" "http://www.w3.org/Graphics/SVG/1.1/DTD/svg11.dtd"><svg t="1549470435605" class="icon" style="" viewBox="0 0 1131 1024" version="1.1" xmlns="http://www.w3.org/2000/svg" p-id="2930" xmlns:xlink="http://www.w3.org/1999/xlink" width="220.8984375" height="200"><defs><style type="text/css"></style></defs><path d="M1047.166315 1024H106.266207c-50.510144 0-51.858138-77.62862 1.744463-77.62862h936.063187c57.091529 0 52.09602 77.62862 3.092458 77.62862z" fill="#FFCB95" p-id="2931"></path><path d="M176.758386 456.494347a27.673533 27.673533 0 0 1-22.122968-10.783955 28.070002 28.070002 0 0 1 4.836921-39.646895C239.955536 343.500697 349.380966 289.025863 467.608006 252.867895c116.086108-35.523618 230.824222-51.303082 332.003098-45.752516 103.081927 5.788447 182.375716 33.382685 227.969645 79.92814a28.070002 28.070002 0 0 1-39.646895 39.646895c-76.042744-77.470033-287.757163-85.875174-503.515564-19.902742C372.217577 340.963296 269.214944 391.869909 193.965138 450.547313a27.514945 27.514945 0 0 1-17.206752 5.947034z" fill="#FFA233" p-id="2932"></path><path d="M913.794161 423.983893a61.531981 61.531981 0 0 1-19.823448-2.775282 38.774663 38.774663 0 0 1-25.453306-23.788137 38.061019 38.061019 0 0 1-1.110113-10.783955c0-165.882608 0-156.446647 0.63435-160.728512 3.013164-14.590057 18.554747-29.021527 45.19746-29.021527h154.543596a49.16215 49.16215 0 0 1 33.937742 12.845594c13.242063 12.924888 9.991018 7.929379 9.83243 179.283258a31.162459 31.162459 0 0 1-8.880904 21.409323c-17.761809 17.761809-25.770482 13.559238-188.877807 13.559238z" fill="#355EFF" p-id="2933"></path><path d="M867.328 268.171597v118.147746a38.061019 38.061019 0 0 0 1.110113 10.783956 38.774663 38.774663 0 0 0 25.453307 23.788137 61.531981 61.531981 0 0 0 19.823447 2.775282H944.084388c-9.991018-56.69506-34.889267-114.420939-76.756388-155.495121zM1101.720442 209.414899a49.16215 49.16215 0 0 0-33.937742-12.845594h-124.729131c-1.427288 41.074183 53.285427 44.087347 80.641784 66.448195 31.162459 27.19777 23.074493 73.346755 14.907233 111.011306-6.422797 25.5326-27.514945 39.646895-50.589438 49.955087 92.06009 0.555057 100.068763 0.951525 114.420938-13.876413a31.162459 31.162459 0 0 0 9.118786-21.567911c0.158588-171.115998 3.409633-166.516958-9.83243-179.12467z" fill="#0017E0" p-id="2934"></path><path d="M988.726792 239.78442a20.774973 20.774973 0 0 1-20.854267-20.854267v-55.505652a20.854267 20.854267 0 0 1 41.708534 0v55.505652a20.854267 20.854267 0 0 1-20.854267 20.854267z" fill="#69B2ED" p-id="2935"></path><path d="M988.726792 212.031594a62.642094 62.642094 0 0 1-62.5628-62.642094v-55.505653a62.5628 62.5628 0 0 1 125.1256 0v55.505653a62.642094 62.642094 0 0 1-62.5628 62.642094z" fill="#87C3FF" p-id="2936"></path><path d="M1051.289592 93.804553v55.505653A62.642094 62.642094 0 0 1 962.004785 206.163853c29.814465-7.929379 59.311755-28.149295 61.690568-59.708223a323.122193 323.122193 0 0 0 1.66517-33.937742h-48.13133a35.682205 35.682205 0 0 0-4.836922 0v13.40065a36.950906 36.950906 0 0 1-4.836921 22.440143 32.589748 32.589748 0 0 1-27.911414 10.863249h-9.515255a23.788137 23.788137 0 0 1-3.409633-0.475763 63.990088 63.990088 0 0 1-0.555056-8.801611v-55.505652a62.5628 62.5628 0 1 1 125.1256 0z" fill="#69B2ED" p-id="2937"></path><path d="M958.833033 110.139074c0 29.021527 3.964689 37.505963-27.673532 34.968561a11.339012 11.339012 0 0 1-9.991018-7.929379c0-1.506582-8.484435-65.734552 15.303702-93.804553a67.241134 67.241134 0 0 1 47.576273-23.788137c50.906613-2.378814 75.963451 51.699551 69.46136 71.364411a11.339012 11.339012 0 0 1-9.911724 7.929379h-53.602601c-14.669351-0.079294-31.162459-3.013164-31.16246 11.259718z" fill="#0017E0" p-id="2938"></path><path d="M137.428666 523.339012a54.157658 54.157658 0 0 1-17.99969-2.93387 35.206443 35.206443 0 0 1-23.074493-21.885086 33.224098 33.224098 0 0 1-0.713644-9.673843c0-150.6582 0-141.777296 0.555056-145.662691 2.616695-13.242063 16.651696-26.008363 40.757008-26.008363h140.032833a44.959579 44.959579 0 0 1 30.686696 11.656187c11.973362 11.735481 9.039492 7.295029 8.960199 162.472975a27.911414 27.911414 0 0 1-7.929379 19.585566C292.448025 526.986526 285.23229 523.339012 137.428666 523.339012z" fill="#355EFF" p-id="2939"></path><path d="M208.000139 470.529348a44.087347 44.087347 0 0 0 12.924887-21.567911 48.607093 48.607093 0 0 0-36.713024-47.576274A190.305095 190.305095 0 0 0 95.640839 483.692117v5.550565a33.224098 33.224098 0 0 0 1.030819 9.673843A35.206443 35.206443 0 0 0 119.428976 520.405142a54.157658 54.157658 0 0 0 17.920396 2.537401h16.413815c14.272882-20.695679 36.078674-35.920087 54.236952-52.413195z" fill="#0017E0" p-id="2940"></path><path d="M307.672432 328.514171A44.959579 44.959579 0 0 0 276.985736 317.175159H163.992085c-1.347994 37.268081 48.210624 39.646895 73.029581 60.26328 28.228589 24.581075 20.854267 66.368902 13.479944 100.8617-5.788447 23.153787-24.89825 35.682205-45.83181 45.197461 83.417067 0.555057 90.632802 0.872232 103.716277-12.607713a27.911414 27.911414 0 0 0 7.929378-19.585566c0.396469-155.495122 3.330339-151.054669-8.643023-162.79015z" fill="#0017E0" p-id="2941"></path><path d="M205.30415 356.108409a18.951216 18.951216 0 0 1-18.871922-18.951215v-50.351557a18.951216 18.951216 0 1 1 37.823138 0v50.351557a18.951216 18.951216 0 0 1-18.951216 18.951215z" fill="#69B2ED" p-id="2942"></path><path d="M205.30415 330.892984a56.69506 56.69506 0 0 1-56.69506-56.695059v-50.430851a56.69506 56.69506 0 0 1 113.39012 0v50.430851a56.69506 56.69506 0 0 1-56.69506 56.695059z" fill="#87C3FF" p-id="2943"></path><path d="M262.157797 223.767074v50.430851a56.69506 56.69506 0 0 1-56.69506 56.695059 57.487998 57.487998 0 0 1-23.788136-5.391977c27.039182-6.977853 53.761189-25.5326 55.505652-54.078365 1.030819-10.308193 1.506582-20.537092 1.506582-30.76599H190.476211v12.13195a33.144804 33.144804 0 0 1-4.440452 20.378503 29.49729 29.49729 0 0 1-25.215425 9.83243h-8.643023a20.854267 20.854267 0 0 1-3.092458-0.475762 65.49667 65.49667 0 0 1-0.555057-7.929379v-50.82732a56.69506 56.69506 0 0 1 56.69506-56.695059 56.060709 56.060709 0 0 1 28.704352 7.929379A56.69506 56.69506 0 0 1 262.157797 223.767074z" fill="#69B2ED" p-id="2944"></path><path d="M178.264968 238.595013c0 26.325538 3.568221 33.937742-25.056838 31.717516a10.228899 10.228899 0 0 1-9.039492-7.453616c-0.396469-1.347994-7.929379-59.549636 13.797119-84.923649a60.89763 60.89763 0 0 1 43.452997-21.409323c46.148986-2.140932 68.747716 46.86263 62.959269 64.783026a10.546074 10.546074 0 0 1-9.039492 7.057147H206.652144c-13.479944 0-28.387177-2.695989-28.387176 10.228899z" fill="#0017E0" p-id="2945"></path><path d="M565.932305 475.286975m-348.17903 0a348.179031 348.179031 0 1 0 696.358061 0 348.179031 348.179031 0 1 0-696.358061 0Z" fill="#FF983B" p-id="2946"></path><path d="M582.663295 823.069537h11.576893l5.154097-0.475763h3.092457l5.62986-0.713644h2.616695l7.929379-1.110113h2.220226l5.788446-0.951525 3.251046-0.634351 4.916215-2.458107 3.488926-0.713644 4.361159-0.951526 3.647514-0.872232 4.202571-1.030819 3.647514-0.872231 4.281865-1.189407 3.488927-0.951526 7.057147-2.061638 3.885396-1.268701 3.647514-1.189407 4.043983-1.347994 3.330339-1.189407 4.123278-1.506582 3.092457-1.189407 4.281865-1.665169 2.775283-1.189407 4.519746-1.823758 1.665169-0.713644c3.726808-1.66517 7.929379-3.330339 11.180425-5.074802h0.475762l4.916215-2.458108 1.982345-0.951525 4.678334-2.378814 2.061638-1.110113 4.678334-2.537401 1.903051-1.110113 4.757627-2.695989 1.268701-0.713644c7.929379-4.519746 15.06582-9.277373 22.281555-14.272882l1.110113-0.792938 4.757627-3.409633 1.347994-0.951526 4.678334-3.488926 1.110113-0.872232a348.179031 348.179031 0 0 0-176.507976-623.328481A348.179031 348.179031 0 0 1 697.480702 574.879975h-36.792318a92.535853 92.535853 0 0 0 31.717516-69.937122V424.697538a17.841103 17.841103 0 0 0 3.806102-6.343504c9.515255-29.338702-27.514945-109.584017-103.081927-106.09509a99.672294 99.672294 0 0 0-71.36441 35.127149c-35.206443 41.549946-23.23308 136.861081-22.598731 139.081307a16.889577 16.889577 0 0 0 7.295029 9.673842v16.175933c0 1.744463 0 3.409633 0.555057 5.074803v0.555056a92.773734 92.773734 0 0 0 30.924578 56.932941h-50.192969c-39.646895 0-62.5628 21.409323-67.082546 43.056528-1.110113 5.312684-1.030819-3.488927-0.951526 136.543906-9.039492 0.713644-18.237572 1.110113-27.514945 1.110113a344.293635 344.293635 0 0 1-34.889267-1.744463 347.782562 347.782562 0 0 0 105.777915 54.078364l8.643023 2.537401c5.788447 1.66517 11.735481 3.171752 17.682515 4.519746h0.951526l7.929379 1.66517h1.189407c5.788447 1.110113 11.656187 2.061639 17.523927 2.93387h1.903051l6.977854 0.872232h2.061638c5.788447 0.63435 11.656187 1.110113 17.523928 1.427288h31.003871z" fill="#EF642E" p-id="2947"></path><path d="M330.509044 805.387022a658.138454 658.138454 0 0 1-88.412576-5.629859C124.583072 783.977699 48.064565 735.846368 26.020891 664.402664 1.836286 585.426049 50.522672 491.621496 159.472339 406.301378a28.070002 28.070002 0 0 1 34.492799 44.245935c-88.253988 68.985597-130.993341 142.728821-114.262351 197.441536 14.827939 48.607093 76.756388 83.654948 169.926591 96.183367 102.051107 13.717826 228.603996 0 356.266997-39.250426 8.960198-2.695989 17.99969-5.629859 26.880595-8.563729A28.070002 28.070002 0 0 1 650.697367 749.564194c-9.356667 3.171752-18.792628 6.184916-28.22859 9.039492a1015.594858 1015.594858 0 0 1-291.959733 46.783336z" fill="#FFE633" p-id="2948"></path><path d="M67.729425 582.809354A89.681276 89.681276 0 0 0 79.782081 647.750968c-16.73099-54.633421 26.008363-128.297352 114.183057-197.203655a27.911414 27.911414 0 0 0 4.836921-39.646895 27.277064 27.277064 0 0 0-6.660678-6.184915 12.607713 12.607713 0 0 1-1.427288 2.93387C156.221294 472.749574 84.936177 505.10144 67.729425 582.809354zM114.671348 762.409788a386.8744 386.8744 0 0 0 127.42512 37.347375 658.138454 658.138454 0 0 0 88.412576 5.629859 1015.594858 1015.594858 0 0 0 291.801146-46.783336c9.435961-2.854576 18.871922-5.86774 28.228589-9.039492a28.070002 28.070002 0 0 0 18.396159-33.06551C489.413798 773.114449 293.875313 816.726034 114.671348 762.409788z" fill="#FFA233" p-id="2949"></path><path d="M468.718119 915.446802a91.187858 91.187858 0 0 1-29.338702-4.123277 49.955088 49.955088 0 0 1-39.646895-51.699551c0-245.810748-0.475763-232.092922 0.872232-238.436426 4.59904-21.647205 27.673533-43.056528 67.082546-43.056527h229.476227a73.02958 73.02958 0 0 1 50.272263 19.030509c19.66486 19.189097 14.827939 11.894068 14.669351 265.951371a45.911104 45.911104 0 0 1-13.479944 32.193278c-26.087657 26.880595-37.902431 20.140623-279.907078 20.140623z" fill="#FF6C17" p-id="2950"></path><path d="M747.43579 597.16153a73.02958 73.02958 0 0 0-50.272263-19.030509H512.25041c-2.220226 60.89763 78.897321 65.417376 119.495741 98.641474 46.307573 40.201951 34.254917 108.711786 22.122967 165.010376-9.435961 37.981725-40.757008 58.518817-75.011925 74.139694 136.6232 0.872232 148.358681 1.347994 169.768004-20.616386a45.911104 45.911104 0 0 0 13.479944-32.193278c0.158588-254.057302 4.995509-246.762274-14.669351-265.951371z" fill="#FF4215" p-id="2951"></path><path d="M579.888012 642.279696a31.003872 31.003872 0 0 1-30.924578-30.924578V528.810283a30.924578 30.924578 0 0 1 61.849156 0V611.355118a30.924578 30.924578 0 0 1-30.924578 30.924578z" fill="#FFAF8E" p-id="2952"></path><path d="M579.888012 601.046926a92.853028 92.853028 0 0 1-92.853027-92.853028v-82.465541a92.853028 92.853028 0 0 1 185.706055 0v82.465541A92.853028 92.853028 0 0 1 579.888012 601.046926z" fill="#FFCAB4" p-id="2953"></path><path d="M672.74104 425.728357v82.465541a92.773734 92.773734 0 0 1-132.420629 83.972123c44.245935-11.418306 87.936813-41.787827 91.42574-88.571163a444.600279 444.600279 0 0 0 2.458107-50.272262h-71.36441a71.364411 71.364411 0 0 0-7.136441 0v19.823447a54.474834 54.474834 0 0 1-7.215735 33.303392c-10.308193 14.510764-28.545764 15.858758-41.391359 15.858758-4.202571 0-8.801611 0-14.114294-0.634351a36.078674 36.078674 0 0 1-4.995509-0.713644 88.0954 88.0954 0 0 1-0.951525-13.004181V425.728357a92.853028 92.853028 0 0 1 185.706055 0z" fill="#FFAF8E" p-id="2954"></path><path d="M535.562784 449.912963c0 43.135822 5.947034 55.505653-40.994889 51.937432a16.889577 16.889577 0 0 1-14.827939-12.13195c-0.555057-2.220226-12.607713-97.531361 22.59873-139.081307a99.989469 99.989469 0 0 1 71.364411-35.127149c75.487688-3.488927 112.517888 76.756388 103.081926 106.095091a16.968871 16.968871 0 0 1-14.748644 11.497599h-79.29379c-22.678024 0.079294-47.179805-4.281865-47.179805 16.810284z" fill="#383838" p-id="2955"></path><path d="M540.558293 346.672449A64.307263 64.307263 0 0 0 499.563403 396.468948a11.576893 11.576893 0 0 0 7.929379 13.638532 11.021837 11.021837 0 0 0 13.559238-7.929379 42.739353 42.739353 0 0 1 25.532601-34.572092c13.083475-5.23339 7.374322-26.642713-5.867741-21.330029zM577.588492 354.839709a21.092148 21.092148 0 0 1 3.726809-0.872232h-2.933871a21.726498 21.726498 0 0 1 5.074803 0 10.46678 10.46678 0 0 0 7.929379-3.251045 11.021837 11.021837 0 0 0 0-15.858758l-2.220226-1.744464a11.418306 11.418306 0 0 0-5.550565-1.506582 26.880595 26.880595 0 0 0-11.735481 1.268701 11.021837 11.021837 0 0 0 5.86774 21.33003zM448.418909 608.738423c-15.858758 6.343503-22.281555 19.823447-24.343193 36.157969-2.537401 20.29921-3.330339 40.915595-4.043984 61.373393 0 14.272882 21.726498 14.272882 22.202261 0s1.189407-28.862939 2.29952-43.215116c0.713644-8.722317-0.555057-28.862939 9.753137-32.986216 13.083475-5.23339 7.374322-26.642713-5.867741-21.33003zM492.109787 624.597181c10.149605-0.555057 20.29921-0.951525 30.528109-1.189406 14.193588 0 14.272882-22.440142 0-22.122968-10.228899 0-20.378504 0.63435-30.528109 1.189407-14.193588 0.713644-14.272882 22.836611 0 22.122967z" fill="#FFFFFF" p-id="2956"></path><path d="M641.657875 751.070776a28.070002 28.070002 0 0 1-8.880905-54.712715C753.779293 655.997522 859.319327 597.478705 930.445857 531.268391c64.941614-60.183986 94.042435-121.478086 79.769552-168.102834a91.108564 91.108564 0 0 0-22.678024-37.109494 28.070002 28.070002 0 1 1 39.646895-39.646895 145.662692 145.662692 0 0 1 36.316556 60.025399c21.092148 68.985597-12.7663 149.151618-95.152548 225.670126-76.835682 71.364411-189.829333 134.006505-318.04739 176.825151a27.118476 27.118476 0 0 1-8.643023 2.140932z" fill="#FFE633" p-id="2957"></path><path d="M626.90923 731.723091c126.870063-56.140003 258.894223-101.416757 351.667957-209.335605 49.003562-56.298591 102.52687-158.587579 58.122348-225.273656-2.854576-3.409633-5.86774-6.819266-9.118786-10.070311a28.070002 28.070002 0 1 0-39.646895 39.646895 91.108564 91.108564 0 0 1 22.678024 37.109493c14.272882 46.624748-14.827939 107.918848-79.769552 168.102834-71.364411 65.893139-176.825151 124.411956-297.668887 164.772495a28.070002 28.070002 0 0 0-18.158278 35.206443 30.052346 30.052346 0 0 0 3.092458 6.422797 31.717516 31.717516 0 0 1 8.801611-6.581385z" fill="#FFE633" p-id="2958"></path><path d="M1063.897305 347.068917a142.015177 142.015177 0 0 0-27.19777-49.955087c44.404522 67.003252-9.118786 168.975066-58.122348 225.273656C885.803453 630.306334 753.779293 675.583088 626.90923 731.723091a31.717516 31.717516 0 0 0-8.643023 6.581385 28.307883 28.307883 0 0 0 23.788137 12.7663 27.118476 27.118476 0 0 0 8.643023-1.506582c128.218058-42.818646 241.211708-105.619328 318.04739-176.825151 82.386247-76.518507 116.244696-156.684528 95.152548-225.670126z" fill="#FFA233" p-id="2959"></path><path d="M987.616679 19.426978c48.765681 0 72.553818 52.254607 66.210314 71.364411a11.180424 11.180424 0 0 1-2.537401 4.281865v54.078364a62.721388 62.721388 0 0 1-21.409323 47.179805h37.902431a56.298591 56.298591 0 0 1 9.673843 0.872232l4.599039 1.030819a46.069692 46.069692 0 0 1 19.66486 10.942543c6.819266 6.660678 9.277373 8.563729 9.991018 32.351866v147.169274a23.788137 23.788137 0 0 1 0 3.409633 29.417996 29.417996 0 0 1-3.330339 10.783955 34.73068 34.73068 0 0 1-5.550566 7.53291l-0.713644 0.713645-0.555056 0.475762-0.475763 0.475763-0.475763 0.475763-0.713644 0.63435-0.475763 0.396469H1070.161514c-15.06582 58.756698-48.210624 109.742605-101.575345 159.142636a674.631563 674.631563 0 0 1-100.8617 76.122038c-1.66517 2.93387-3.409633 5.86774-5.154096 8.722317l-0.475763 0.713644c-1.506582 2.458107-3.092458 4.916215-4.678334 7.374322l-0.713644 1.03082c-1.506582 2.378814-3.171752 4.757627-4.757627 7.136441l-0.555057 0.713644a344.61081 344.61081 0 0 1-23.788137 30.528109c-2.061639 2.458107-4.281865 4.836921-6.422797 7.136441a351.826545 351.826545 0 0 1-43.373703 39.646895l-1.110113 0.872231c-3.488927 2.695989-7.136441 5.312684-10.783955 7.929379l-1.110113 0.792938-1.903051 1.347995v100.385938a50.589438 50.589438 0 0 1-0.792938 7.929378v1.744464a46.069692 46.069692 0 0 1-4.202571 11.259718 51.699551 51.699551 0 0 1-7.929379 11.180424l-1.110113 1.110113-0.713644 0.713645h-0.475763l-0.63435 0.63435-0.475763 0.396469-0.713644 0.713644-1.030819 0.951525-0.792938 0.634351h-0.475763l-0.555056 0.555056-0.555057 0.396469-0.63435 0.475763h-0.475763l-0.713644 0.555056-0.792938 0.475763-0.713644 0.475763h-4.995509l-1.347994 0.555056h-4.916215l-1.903051 0.555057h-0.475763L722.061777 911.878581h-5.391977l-2.616695 0.475763H578.540018c-30.13164 0-66.368902-0.475763-110.139074-0.475763a91.187858 91.187858 0 0 1-29.338702-4.123277 49.955088 49.955088 0 0 1-39.646895-51.699551v-53.602601c-23.788137 1.982345-46.941923 2.93387-69.46136 2.93387a658.138454 658.138454 0 0 1-88.412575-5.629859c-3.409633 0-6.819266-0.951525-10.149605-1.427288l-3.409633-0.555057-6.502091-1.110113-4.043983-0.713644-5.709153-1.030819-4.281865-0.872232-5.154096-1.110113-3.568221-0.951526-4.757627-1.110113-4.59904-1.110113-3.806102-0.951525c-3.806102-1.030819-7.453616-1.982345-11.10113-3.092458l-2.220226-0.713644-5.867741-1.823757-2.458107-0.792938-5.788447-1.903051-2.220226-0.713644-5.86774-2.140933-1.744464-0.555056-6.105622-2.29952h-0.713644a287.91575 287.91575 0 0 1-26.801301-12.211244c-45.673223-23.788137-76.201332-57.170822-88.650457-98.007124C7.307557 603.187858 32.205807 532.854267 95.640839 464.661608c0-125.204894 0-117.830571 0.555056-121.478086 2.616695-13.242063 16.651696-26.008363 40.757008-26.008363h31.083166a56.853647 56.853647 0 0 1-18.871922-34.73068v-3.171752a2.695989 2.695989 0 0 1 0-0.792938V268.805947a10.228899 10.228899 0 0 1-4.440452-5.947034c-0.396469-1.347994-7.929379-59.549636 13.797119-84.923649a60.89763 60.89763 0 0 1 43.452997-21.409323h2.854576c44.166641 0 65.734552 47.576274 60.104693 64.86232a9.991018 9.991018 0 0 1-2.378814 3.806102v49.082856A56.457178 56.457178 0 0 1 242.572231 317.175159h13.242063a348.179031 348.179031 0 0 1 310.118011-190.305096 359.835218 359.835218 0 0 1 40.519127 2.378814l3.092458 0.396469 4.995508 0.63435 3.409633 0.475763 4.757628 0.792938 3.56822 0.555057 4.678334 0.872231 3.56822 0.713644 4.59904 0.951526 3.647515 0.792938 4.519746 1.030819 3.56822 0.872232 4.519746 1.189407 3.568221 0.951525 4.440452 1.268701 3.488927 1.030819 4.440452 1.347994 3.488927 1.189407 4.361158 1.427288 3.409633 1.189407 4.361158 1.585876 3.33034 1.268701 4.281864 1.665169 3.330339 1.347995 4.281865 1.823757 3.092458 1.347994 4.440452 1.903051 2.616695 1.268701c5.471271 2.537401 10.942543 5.23339 15.858758 7.929379l2.775283 1.506582 4.043983 2.220226 3.092458 1.744463 3.806102 2.220226 3.171751 1.903051 3.726808 2.29952 3.171752 1.982345 3.647514 2.378814c1.110113 0.63435 2.140932 1.347994 3.171752 2.061638l3.56822 2.378814 3.171752 2.220226 3.488927 2.458108 3.092458 2.299519 3.409633 2.537402 3.092457 2.378813 3.251046 2.537402 3.092458 2.458107a19.268391 19.268391 0 0 0 1.982344 1.585876l12.290538 0.555057a601.76057 601.76057 0 0 1 72.633111 8.325847 47.021217 47.021217 0 0 1 40.994889-18.871922h34.334211a62.404212 62.404212 0 0 1-20.457798-37.66455v-0.792938-3.409632a3.885396 3.885396 0 0 0 0-0.951526v-9.991017a11.894068 11.894068 0 0 1-4.916214-6.502091c0-1.506582-8.484435-65.734552 15.303701-93.804553a67.241134 67.241134 0 0 1 47.576274-23.788137h3.251045M867.407294 301.316401v-7.136441-22.59873c-7.057147-1.347994-14.43147-2.616695-21.96438-3.647515l1.110113 1.506582c0.872232 1.110113 1.66517 2.220226 2.458108 3.409633l2.299519 3.171752 2.378814 3.488927c0.792938 1.030819 1.506582 2.140932 2.220226 3.251045s1.585876 2.29952 2.29952 3.488927l2.140933 3.330339 2.220226 3.56822 2.061638 3.33034 2.140932 3.726808 0.713645 1.110113m37.743843 252.154251q13.162769-10.783955 25.215426-21.885086c39.646895-36.475143 65.575964-73.426049 76.914976-107.205204H910.305234c0 1.506582 0.396469 3.013164 0.63435 4.519746l0.475763 3.806102c0 1.585876 0 3.171752 0.555057 4.757628s0 2.458107 0 3.726808V498.916525c0 2.061639 0 4.123277-0.475763 6.105622s0 2.458107 0 3.726808-0.396469 4.123277-0.63435 6.184915 0 2.29952-0.396469 3.488927-0.555057 4.59904-0.951526 6.977853v2.537402c-0.475763 3.171752-1.030819 6.343503-1.585876 9.515254a2.29952 2.29952 0 0 1 0 0.713645c-0.475763 2.854576-1.030819 5.788447-1.665169 8.722316 0 0.872232-0.396469 1.744463-0.555057 2.695989l-0.951525 4.202571M330.746925 749.326313h20.061329A347.386093 347.386093 0 0 1 221.083614 523.339012H137.428666a54.792009 54.792009 0 0 1-16.493108-2.140932l-1.03082 1.2687-4.440452 5.709153-0.63435 0.792938c-1.506582 1.982345-2.93387 3.964689-4.281865 5.86774l-0.475762 0.634351-3.96469 5.788446-0.475763 0.634351c-1.347994 1.982345-2.616695 4.043983-3.885395 6.026328-1.268701 2.061639-2.537401 4.043983-3.647515 6.105622C77.87903 588.359919 71.376939 620.473904 79.782081 647.750968c14.827939 48.607093 76.756388 83.654948 169.926591 96.183367a616.588509 616.588509 0 0 0 81.117547 5.154096M987.616679 0H983.731283a86.509525 86.509525 0 0 0-61.849156 30.528109c-12.7663 15.06582-19.902741 38.061019-21.250735 68.509834a200.533994 200.533994 0 0 0 2.061638 43.056528 31.717516 31.717516 0 0 0 4.281865 9.039492v3.488927a3.885396 3.885396 0 0 0 0 0.951525c0 1.427288 0 2.775283 0.396469 4.202571v0.872232l1.903051 13.162769h1.189407c0 0.951525 0.555057 1.823757 0.872231 2.775283a69.302772 69.302772 0 0 0-46.783336 17.36534 608.421248 608.421248 0 0 0-64.069382-6.739973h-6.105622l-3.488926-2.775282-3.251046-2.061639-3.647514-2.695989-3.251045-2.378813-3.647515-2.854577-3.330339-2.29952-3.726808-2.537401-3.251045-2.061638-3.726808-2.378814-2.775283-1.744463h-1.110113l-3.409633-2.140933-2.854577-2.695989h-1.427288l-3.409633-1.982344-2.220226-1.903051-0.872231-0.555057-0.951526-0.475763-3.409633-1.903051-1.982345-1.110113H737.920535a347.306799 347.306799 0 0 0-17.206752-8.563729l-0.951526-0.396469-1.823757-0.872232-3.806102-2.061638-0.951525-0.396469-0.951526-0.396469-2.29952-1.030819-3.806101-1.585876h-1.66517l-2.537401-1.110113-4.043984-1.506582h-1.189406l-2.854577-1.110113-4.59904-1.66517-3.251045-1.189407-4.59904-1.506582-3.647514-1.189406-4.678334-1.427289-3.726808-1.110113-4.678333-1.347994-3.806102-1.030819-5.23339-2.220226-3.806102-0.951526-4.757628-1.110113-3.726808-0.792938-4.836921-0.951525-3.092458-0.634351h-0.713644l-4.678334-0.872231-3.092457-0.872232h-1.585876l-4.440452-0.713644H616.363156l-4.361159-0.63435H608.671658a367.20954 367.20954 0 0 0-327.24547 130.99334V230.744928a18.634041 18.634041 0 0 0 1.347994-3.488927c5.074803-15.858758-0.396469-37.66455-13.955707-56.377884a78.659439 78.659439 0 0 0-64.545144-33.858448h-3.726808A80.324609 80.324609 0 0 0 143.217113 165.406845c-11.814775 13.876413-18.396159 35.127149-19.66486 63.435032a181.662072 181.662072 0 0 0 1.982344 39.646895 30.607403 30.607403 0 0 0 3.806102 7.929379v2.616695a3.885396 3.885396 0 0 1 0 0.951525v4.59904l1.823758 12.7663c-32.193279 1.982345-50.668732 21.885086-54.792009 41.549946-0.951525 4.361158-0.951525 4.361158-0.951526 63.435032v54.712715a313.84482 313.84482 0 0 0-64.227969 103.557689 172.384699 172.384699 0 0 0-4.281865 109.42543c13.638532 44.800991 47.576274 82.386247 96.817717 108.711786l1.268701 0.63435 2.061638 1.030819c8.405142 4.281865 17.286046 7.929379 26.484126 12.052656h0.634351l6.422797 2.537401 1.665169 0.555057 6.184916 2.220226 2.140932 0.713644 6.026328 2.061639 1.823757 0.555056h0.792938l6.184916 1.903051h1.982344l11.576894 3.171752h1.189407l2.854576 0.713644 3.726808 0.872232h1.110113l4.678334 1.110113 4.519746 0.951525 5.471271 1.189407 4.440452 0.872232 5.947035 1.110113h0.555056l3.647515 0.713644 6.819265 1.110113h3.488927c3.726808 0.555057 7.136441 1.110113 10.46678 1.506582a680.261422 680.261422 0 0 0 91.029271 5.788446c16.255227 0 33.06551-0.475763 50.034381-1.506582v36.316556a69.223478 69.223478 0 0 0 52.571783 70.09571 109.504724 109.504724 0 0 0 35.602911 5.154097c43.294409 0 79.29379 0 110.059781 0.475762h139.081307l3.171751-0.555056h8.643023l2.616695-0.792938h0.634351l1.030819-0.396469h2.775283l1.189406-0.475763h0.634351l1.903051-0.792938H740.53723l0.792938-0.475762 1.030819-0.475763 0.792938-0.475763 0.951526-0.555056 0.792938-0.475763 0.713644-0.475763 1.110113-0.713644 1.110113-0.713644 0.951525-0.713644 0.634351-0.475763 0.872231-0.63435 0.713645-0.555057 0.872231-0.63435 0.634351-0.555057 0.951525-0.792938 1.427288-1.189406 1.030819-0.951526 0.475763-0.475763 0.872232-0.792938 0.475763-0.475762 0.872231-0.872232 1.268701-1.347994a67.637603 67.637603 0 0 0 11.418306-15.858758 66.606783 66.606783 0 0 0 6.026328-15.858758l0.475762-2.29952a72.078055 72.078055 0 0 0 3.726809-16.493108v-0.792938-90.315627l5.550565-4.123277 1.982345-1.506582h0.475762a368.081772 368.081772 0 0 0 44.245935-40.360539l6.660678-7.295028v-0.396469a364.751433 364.751433 0 0 0 24.739663-31.717516l0.396469-0.475763 5.074802-7.929379 0.63435-0.951525 4.916215-7.929379v-0.555057c1.110113-1.744463 2.140932-3.330339 3.013164-4.916215A694.772185 694.772185 0 0 0 981.828232 586.774044c50.668732-47.021217 84.844355-96.897011 99.434413-145.186929h0.555056l2.458108-0.396469H1089.033436l-4.59904-18.871922 4.757628 18.792628h1.427288l1.823757-0.555057h2.140932l0.951526-0.396468h2.061638l1.506582-0.713645H1100.451742l-8.722317-17.36534 9.039492 14.035001h1.982345a1.506582 1.506582 0 0 0 0.713644-0.396469h0.713644l0.63435-0.396469 0.792938-0.475762 0.872232-0.634351 0.792938-0.555056h0.475762l0.713644-0.475763h0.555057l0.63435-0.555056h0.475763l0.63435-0.555057h0.475763l0.951526-0.872232 0.713644-0.63435 0.555056-0.555057 0.396469-0.396468 0.63435-0.555057 0.872232-0.951525a52.73037 52.73037 0 0 0 8.722317-11.894069 49.955088 49.955088 0 0 0 5.550565-17.761809 44.245935 44.245935 0 0 0 0-5.550565V273.88075v-13.876414-14.035-4.836922c-0.792938-25.294719-3.726808-33.779154-15.858758-45.276753v-0.396469a65.338083 65.338083 0 0 0-27.990707-15.858758c-2.061639-0.555057-4.202571-1.030819-6.343504-1.427289a72.315936 72.315936 0 0 0-13.083475-1.189406h-1.982345a81.751897 81.751897 0 0 0 4.836922-27.752827v-48.369212a27.514945 27.514945 0 0 0 1.585875-3.964689c5.391978-16.572402-0.555057-40.360539-15.145113-60.421868a84.685767 84.685767 0 0 0-68.034072-36.475143z m-54.157658 474.9698v-8.880904V462.758557v-5.788447-4.281865-4.836921V443.410872h44.008053a279.907078 279.907078 0 0 1-45.19746 58.835992v-6.026328-8.087967a20.774973 20.774973 0 0 0 0-2.220226v-10.387486zM121.569908 552.59842s0-0.475763 0.475763-0.63435c1.347994-1.982345 2.537401-3.806102 3.726808-5.391978v-0.555056c1.030819-1.427288 1.982345-2.775283 2.93387-3.96469H204.114743a364.751433 364.751433 0 0 0 43.770172 117.751278A373.07728 373.07728 0 0 0 300.060229 729.502865c-16.572402-0.792938-32.589748-2.220226-47.576274-4.281865C168.353244 713.644107 110.865246 682.878117 98.336828 642.279696v-0.396468c-6.502091-21.567911-0.951525-48.448505 15.858758-77.866502 1.110113-1.982345 2.220226-3.806102 3.330339-5.550565v-0.475763l3.488926-5.471271z" fill="#DB0091" p-id="2960"></path><path d="M350.649666 227.176707c-35.285736 20.537092-53.761189 56.457178-70.09571 92.297972a17.920396 17.920396 0 0 0 6.184916 23.788137 17.444634 17.444634 0 0 0 23.788137-6.184916c13.638532-30.052346 27.990708-62.642094 57.725879-79.92814 19.189097-11.180424 1.823757-40.994889-17.444634-29.814465zM440.013767 207.115379l1.585876-1.427289c-1.982345 1.585876-2.29952 1.823757-0.792938 0.792938l3.726808-1.903051-1.585875 0.713644a9.039492 9.039492 0 0 1 1.585875-0.713644 41.470652 41.470652 0 0 1 4.281865-0.951525 16.968871 16.968871 0 0 0 10.308193-7.929379 17.286046 17.286046 0 0 0-6.184916-23.788137 20.29921 20.29921 0 0 0-13.321357-1.744463 47.576274 47.576274 0 0 0-23.788136 12.369831 17.36534 17.36534 0 0 0 0 24.422487 17.682515 17.682515 0 0 0 24.422487 0zM153.604599 426.759176a253.740127 253.740127 0 0 0-40.994889 36.078674c-6.343503 6.660678-12.845594 13.242063-18.475453 20.457798s-8.722317 15.145114-13.955707 22.281555 6.264209 13.242063 11.180424 6.581385 8.563729-15.858758 14.272882-22.59873 10.625368-11.814775 15.858758-17.523928a231.220691 231.220691 0 0 1 38.457488-34.09633c6.819266-4.59904 0.396469-15.858758-6.581384-11.180424zM65.271317 531.982035a211.873006 211.873006 0 0 0-24.263899 69.778535 130.834753 130.834753 0 0 0-1.903051 34.73068 125.363481 125.363481 0 0 0 11.259718 35.523618c3.330339 7.929379 14.510764 1.030819 11.180424-6.502091a99.593 99.593 0 0 1-9.911723-34.492799 137.019669 137.019669 0 0 1 3.171751-33.144804 203.071395 203.071395 0 0 1 21.647205-59.391048c3.964689-7.295029-7.215735-13.797119-11.180425-6.502091zM68.839538 702.384389a58.99458 58.99458 0 0 0 20.695679 20.061329 6.502091 6.502091 0 0 0 6.502091-11.180425 45.356048 45.356048 0 0 1-15.858758-15.858757c-4.440452-6.977853-15.858758-0.555057-11.180425 6.581384zM998.71781 297.193124a101.337463 101.337463 0 0 1 29.180114 57.250116c1.347994 7.929379 13.797119 4.678334 12.528419-3.488927a113.231532 113.231532 0 0 0-32.906923-62.959269 6.502091 6.502091 0 0 0-9.118786 9.19808zM1031.307557 379.658665a98.95865 98.95865 0 0 1-1.268701 31.717516c-1.66517 7.929379 10.863249 11.576893 12.528419 3.409633a108.632492 108.632492 0 0 0 1.66517-35.444324c-0.951525-7.929379-13.876413-8.325848-12.924888 0zM1023.378178 435.164318a246.286511 246.286511 0 0 1-44.087347 71.364411 370.777761 370.777761 0 0 1-58.122348 61.373393c-6.581385 4.995509 0 15.858758 6.502091 11.180424a390.125445 390.125445 0 0 0 63.435032-66.210314 258.497754 258.497754 0 0 0 45.118166-74.456869c2.775283-7.929379-9.673842-11.259718-12.528419-3.488927z" fill="#FFFFFF" p-id="2961"></path></svg>